<svg width="40" height="40" viewBox="0 0 40 40" fill="none" xmlns="http://www.w3.org/2000/svg">
<path d="M12.027 21.8897C15.317 21.8897 17.9784 24.575 17.9784 27.8827V34.009C17.9784 37.3151 15.3167 40 12.027 40H5.95148C2.66178 40 0 37.3151 0 34.009V27.8827C0 24.575 2.66139 21.8897 5.95148 21.8897H12.027ZM34.0504 21.8897C37.339 21.8897 40 24.5754 40 27.8827V34.009C40 37.3147 37.3386 40 34.0504 40H27.973C24.6833 40 22.0216 37.3151 22.0216 34.009V27.8827C22.0216 24.575 24.683 21.8897 27.973 21.8897H34.0504ZM12.027 24.6804H5.95148C4.20826 24.6804 2.7907 26.1107 2.7907 27.8827V34.009C2.7907 35.7792 4.20847 37.2093 5.95148 37.2093H12.027C13.77 37.2093 15.1877 35.7792 15.1877 34.009V27.8827C15.1877 26.1107 13.7702 24.6804 12.027 24.6804ZM34.0504 24.6804H27.973C26.2298 24.6804 24.8123 26.1107 24.8123 27.8827V34.009C24.8123 35.7792 26.23 37.2093 27.973 37.2093H34.0504C35.7917 37.2093 37.2093 35.779 37.2093 34.009V27.8827C37.2093 26.1109 35.7919 24.6804 34.0504 24.6804ZM34.0504 0C37.3386 0 40 2.68528 40 5.99104V12.1193C40 15.4237 37.338 18.1103 34.0504 18.1103H27.973C24.6839 18.1103 22.0216 15.4241 22.0216 12.1193V5.99104C22.0216 2.68489 24.6833 0 27.973 0H34.0504ZM12.027 0C15.3167 0 17.9784 2.68489 17.9784 5.99104V12.1193C17.9784 15.4241 15.3161 18.1103 12.027 18.1103H5.95148C2.66235 18.1103 0 15.4241 0 12.1193V5.99104C0 2.68489 2.66178 0 5.95148 0H12.027ZM34.0504 2.7907H27.973C26.23 2.7907 24.8123 4.22078 24.8123 5.99104V12.1193C24.8123 13.8884 26.2308 15.3196 27.973 15.3196H34.0504C35.791 15.3196 37.2093 13.8881 37.2093 12.1193V5.99104C37.2093 4.22098 35.7917 2.7907 34.0504 2.7907ZM12.027 2.7907H5.95148C4.20847 2.7907 2.7907 4.22078 2.7907 5.99104V12.1193C2.7907 13.8884 4.20922 15.3196 5.95148 15.3196H12.027C13.7692 15.3196 15.1877 13.8884 15.1877 12.1193V5.99104C15.1877 4.22078 13.77 2.7907 12.027 2.7907Z" fill="#200E32"/>
</svg>
